Coordinates
version=1
nRows=11
nColumns=36
inDegrees=yes

Units are S.I. units (second, meters, Newtons, ...)
If the header above contains a line with 'inDegrees', this indicates whether rotational values are in degrees (yes) or radians (no).

endheader
time	pelvis_tilt	pelvis_list	pelvis_rotation	pelvis_tx	pelvis_ty	pelvis_tz	hip_flexion_r	hip_adduction_r	hip_rotation_r	knee_angle_r	knee_angle_r_beta	ankle_angle_r	subtalar_angle_r	mtp_angle_r	hip_flexion_l	hip_adduction_l	hip_rotation_l	knee_angle_l	knee_angle_l_beta	ankle_angle_l	subtalar_angle_l	mtp_angle_l	lumbar_extension	lumbar_bending	lumbar_rotation	arm_flex_r	arm_add_r	arm_rot_r	elbow_flex_r	pro_sup_r	arm_flex_l	arm_add_l	arm_rot_l	elbow_flex_l	pro_sup_l
      7.99166667	    -89.77673646	      4.44252325	   -180.13918083	      0.97238172	      0.54321870	     -0.59757848	     11.68498889	     -3.97101550	    -12.19103330	     32.18732406	      0.56177478	      2.78594832	     -0.24346928	     -7.49999987	      9.82245836	    -15.26843353	    -17.17684268	     35.83583923	      0.62545338	     14.36757682	     10.71543262	     -7.49999987	     -8.10285154	      5.33595816	      4.93792255	     39.08220325	     -8.69546576	     -2.99548736	     52.59859833	    102.18101161	     33.96050314	     -9.23847183	      2.40773698	     58.71048569	    108.46544727
      8.00000000	    -89.77835903	      4.41411295	   -180.21562247	      0.97198985	      0.54300786	     -0.59776108	     11.67333464	     -3.97547620	    -12.16016103	     32.15733525	      0.56125138	      2.82361779	     -0.38766714	     -7.49999987	      9.79560231	    -15.21579824	    -17.11301923	     35.80945040	      0.62499281	     14.52366681	     10.72158127	     -7.49999987	     -8.07327111	      5.27655740	      4.96889823	     38.92049934	     -8.69165496	     -2.87999629	     52.53431228	    101.67258357	     33.89616052	     -9.26676971	      2.56118100	     58.55445429	    108.50899248
      8.00833333	    -89.77864459	      4.52567910	   -180.06665051	      0.97136628	      0.54272387	     -0.59744522	     11.57676141	     -3.85046389	    -12.35171876	     32.04548047	      0.55929914	      3.00065364	     -0.40492653	     -7.49999987	      9.89838594	    -15.26548013	    -16.77885540	     35.87377546	      0.62611550	     14.74578487	     10.67131156	     -7.49999987	     -8.02430466	      5.42659025	      4.78014751	     38.76308341	     -8.67463453	     -2.86766358	     52.48429763	    102.62797393	     33.76885695	     -9.26482778	      2.64458998	     58.40456365	    108.26673344
      8.01666667	    -89.77892792	      4.04964434	   -180.04985192	      0.97064885	      0.54236958	     -0.59692711	     11.63617318	     -4.49886885	    -12.38111471	     32.24443635	      0.56277158	      3.51870588	     -0.04277015	     -7.49999987	      9.82212366	    -14.47701833	    -16.40872728	     35.66731984	      0.62251217	     14.85876187	     10.08009516	     -7.49999987	     -7.98134896	      4.91401345	      4.68053279	     38.49903236	     -8.52481843	     -2.84546840	     52.46047800	    103.15190401	     33.65043216	     -9.29390670	      2.85334638	     58.28281405	    108.32790281
      8.02500000	    -89.78363210	      3.64087900	   -180.21187800	      0.96997059	      0.54211960	     -0.59673067	     11.68266674	     -5.02072490	    -12.15538169	     32.36796638	      0.56492759	      3.87520028	      0.23116412	     -7.49999987	      9.62055718	    -13.81698296	    -16.30127131	     35.38546926	      0.61759295	     15.01817393	      9.69296483	     -7.49999987	     -7.95372338	      4.48164822	      4.75477266	     38.28628404	     -8.51718652	     -2.65846528	     52.37895849	    101.28917904	     33.48987975	     -9.29416179	      3.21639091	     58.16348019	    106.83434527
      8.03333333	    -89.78143069	      4.82905747	   -180.30815953	      0.96916268	      0.54198907	     -0.59733538	     11.35232904	     -3.38821100	    -11.82720588	     31.71636208	      0.55355495	      3.76160831	     -0.37455668	     -7.49999987	      9.77093837	    -15.44664794	    -16.56031972	     35.85220632	      0.62573904	     15.68486343	     10.55743050	     -7.49999987	     -7.92854193	      5.94274391	      4.83813231	     38.26274830	     -8.63740063	     -2.38990270	     52.14707829	    102.40473984	     33.08615666	     -9.09470901	      2.88238036	     57.88655837	    108.93856880
      8.04166667	    -89.78339340	      4.90822744	   -180.50630945	      0.96820475	      0.54175224	     -0.59766331	     11.28987845	     -3.24920975	    -11.80109633	     31.63445593	      0.55212541	      4.14654023	     -0.25925074	     -7.49999987	      9.64359965	    -15.58051765	    -16.81120613	     35.82341879	      0.62523661	     16.00859192	     10.62276364	     -7.49999987	     -7.93580978	      6.03051420	      4.99966639	     38.10494374	     -8.78991824	     -2.20091212	     51.95584202	    101.67229133	     32.88068755	     -9.07047827	      2.98921927	     57.64213151	    108.24312203
      8.05000000	    -89.78358412	      5.32918283	   -180.53916409	      0.96711801	      0.54161855	     -0.59794799	     11.09813612	     -2.64465733	    -11.89712856	     31.32685059	      0.54675669	      4.30985983	     -0.48257128	     -7.49999987	      9.62001679	    -16.14778348	    -16.93794667	     35.91562515	      0.62684591	     16.49722071	     11.05518418	     -7.49999987	     -7.89604009	      6.52528856	      4.97173792	     37.96548147	     -8.87810252	     -1.92225567	     51.64185657	    102.44349786	     32.63551792	     -9.02393461	      3.04849893	     57.30957691	    108.41376958
      8.05833333	    -89.78614504	      5.22321792	   -180.72643661	      0.96601628	      0.54127957	     -0.59799613	     11.07606881	     -2.73813836	    -11.76262075	     31.32257938	      0.54668214	      4.72403435	     -0.33581866	     -7.49999987	      9.45015596	    -15.97583538	    -17.10738792	     35.78866364	      0.62463002	     16.79875829	     10.85243687	     -7.49999987	     -7.89530460	      6.42482453	      5.10130891	     37.70241239	     -8.95846565	     -1.79548269	     51.39356532	    102.04861152	     32.42024060	     -8.98482342	      3.06820126	     57.05892467	    108.78429652
      8.06666667	    -89.78647261	      5.69628735	   -180.69515654	      0.96476194	      0.54090806	     -0.59819087	     10.86575846	     -2.06491158	    -11.61085323	     31.00870637	      0.54120402	      5.05629338	     -0.62522704	     -7.49999987	      9.48883286	    -16.65823932	    -17.28826751	     35.96614565	      0.62772766	     17.28337750	     11.15727669	     -7.49999987	     -7.87328874	      6.98694763	      5.07032095	     37.44623809	     -8.83534529	     -1.85261836	     51.07015968	    102.90333644	     32.17025534	     -8.96283061	      3.22247560	     56.72566778	    108.51940049
      8.07500000	    -89.78897606	      5.22628367	   -180.91164387	      0.96355678	      0.54021156	     -0.59827339	     11.01303343	     -2.62387232	    -11.41319704	     31.30909486	      0.54644679	      5.64265521	     -0.47615715	     -7.49999987	      9.28018338	    -16.00708556	    -17.37224460	     35.72810973	      0.62357315	     17.52455391	     10.85362990	     -7.49999987	     -7.92523132	      6.43898621	      5.13372376	     37.21468442	     -8.74789484	     -1.54276741	     50.60331047	    101.89176432	     31.98733425	     -9.05024002	      3.35391942	     56.30552301	    108.92199791
